<svg width="1049" height="206" viewBox="0 0 1049 206" fill="none" xmlns="http://www.w3.org/2000/svg">
<path d="M273.032 98.8C275.72 98.8 277.768 98.192 279.176 96.976C280.648 95.696 281.384 93.776 281.384 91.216C281.384 88.784 280.616 86.928 279.08 85.648C277.608 84.304 275.432 83.632 272.552 83.632C271.528 83.632 270.664 83.664 269.96 83.728C269.32 83.728 268.648 83.792 267.944 83.92V98.8H273.032ZM268.04 129.616C267.336 129.808 266.216 130 264.68 130.192C263.208 130.384 261.736 130.48 260.264 130.48C258.792 130.48 257.48 130.352 256.328 130.096C255.24 129.904 254.312 129.52 253.544 128.944C252.776 128.368 252.2 127.568 251.816 126.544C251.432 125.52 251.24 124.176 251.24 122.512V77.296C251.24 75.952 251.592 74.928 252.296 74.224C253.064 73.456 254.088 72.848 255.368 72.4C257.544 71.632 260.008 71.088 262.76 70.768C265.576 70.384 268.392 70.192 271.208 70.192C280.04 70.192 286.792 72.08 291.464 75.856C296.136 79.632 298.472 84.752 298.472 91.216C298.472 94.352 297.96 97.2 296.936 99.76C295.976 102.256 294.504 104.432 292.52 106.288C290.6 108.08 288.136 109.488 285.128 110.512C282.184 111.472 278.76 111.952 274.856 111.952H268.04V129.616ZM320.218 129.904C319.578 130.096 318.554 130.288 317.146 130.48C315.802 130.672 314.394 130.768 312.922 130.768C311.514 130.768 310.234 130.672 309.082 130.48C307.994 130.288 307.066 129.904 306.298 129.328C305.53 128.752 304.922 127.984 304.474 127.024C304.09 126 303.898 124.688 303.898 123.088V94.288C303.898 92.816 304.154 91.568 304.666 90.544C305.242 89.456 306.042 88.496 307.066 87.664C308.09 86.832 309.338 86.096 310.81 85.456C312.346 84.752 313.978 84.144 315.706 83.632C317.434 83.12 319.226 82.736 321.082 82.48C322.938 82.16 324.794 82 326.65 82C329.722 82 332.154 82.608 333.946 83.824C335.738 84.976 336.634 86.896 336.634 89.584C336.634 90.48 336.506 91.376 336.25 92.272C335.994 93.104 335.674 93.872 335.29 94.576C333.946 94.576 332.57 94.64 331.162 94.768C329.754 94.896 328.378 95.088 327.034 95.344C325.69 95.6 324.41 95.888 323.194 96.208C322.042 96.464 321.05 96.784 320.218 97.168V129.904ZM389.874 106.672C389.874 110.64 389.266 114.192 388.05 117.328C386.834 120.4 385.106 122.992 382.866 125.104C380.69 127.216 378.066 128.816 374.994 129.904C371.922 130.992 368.498 131.536 364.722 131.536C360.946 131.536 357.522 130.96 354.45 129.808C351.378 128.656 348.722 127.024 346.482 124.912C344.306 122.736 342.61 120.112 341.394 117.04C340.178 113.968 339.57 110.512 339.57 106.672C339.57 102.896 340.178 99.472 341.394 96.4C342.61 93.328 344.306 90.736 346.482 88.624C348.722 86.448 351.378 84.784 354.45 83.632C357.522 82.48 360.946 81.904 364.722 81.904C368.498 81.904 371.922 82.512 374.994 83.728C378.066 84.88 380.69 86.544 382.866 88.72C385.106 90.832 386.834 93.424 388.05 96.496C389.266 99.568 389.874 102.96 389.874 106.672ZM356.274 106.672C356.274 110.576 357.01 113.584 358.482 115.696C360.018 117.744 362.13 118.768 364.818 118.768C367.506 118.768 369.554 117.712 370.962 115.6C372.434 113.488 373.17 110.512 373.17 106.672C373.17 102.832 372.434 99.888 370.962 97.84C369.49 95.728 367.41 94.672 364.722 94.672C362.034 94.672 359.954 95.728 358.482 97.84C357.01 99.888 356.274 102.832 356.274 106.672ZM397.932 70.384C397.932 67.952 398.732 65.904 400.332 64.24C401.996 62.576 404.172 61.744 406.86 61.744C409.548 61.744 411.692 62.576 413.292 64.24C414.956 65.904 415.788 67.952 415.788 70.384C415.788 72.816 414.956 74.864 413.292 76.528C411.692 78.192 409.548 79.024 406.86 79.024C404.172 79.024 401.996 78.192 400.332 76.528C398.732 74.864 397.932 72.816 397.932 70.384ZM394.668 136.528C396.076 135.632 397.1 134.384 397.74 132.784C398.38 131.248 398.7 129.52 398.7 127.6V84.016C399.404 83.888 400.428 83.728 401.772 83.536C403.18 83.28 404.588 83.152 405.996 83.152C407.404 83.152 408.652 83.248 409.74 83.44C410.892 83.632 411.852 84.016 412.62 84.592C413.388 85.168 413.964 85.968 414.348 86.992C414.796 87.952 415.02 89.232 415.02 90.832V129.136C415.02 131.824 414.7 134.256 414.06 136.432C413.42 138.608 412.492 140.464 411.276 142C410.124 143.6 408.684 144.816 406.956 145.648C405.292 146.544 403.404 146.992 401.292 146.992C398.476 146.992 396.268 146.128 394.668 144.4C393.068 142.736 392.236 140.624 392.172 138.064L394.668 136.528ZM450.07 131.536C446.294 131.536 442.774 131.024 439.51 130C436.31 128.912 433.494 127.312 431.062 125.2C428.694 123.088 426.806 120.432 425.398 117.232C424.054 114.032 423.382 110.288 423.382 106C423.382 101.776 424.054 98.16 425.398 95.152C426.806 92.08 428.63 89.584 430.87 87.664C433.11 85.68 435.67 84.24 438.55 83.344C441.43 82.384 444.374 81.904 447.382 81.904C450.774 81.904 453.846 82.416 456.598 83.44C459.414 84.464 461.814 85.872 463.798 87.664C465.846 89.456 467.414 91.6 468.502 94.096C469.654 96.592 470.23 99.312 470.23 102.256C470.23 104.432 469.622 106.096 468.406 107.248C467.19 108.4 465.494 109.136 463.318 109.456L439.606 113.008C440.31 115.12 441.75 116.72 443.926 117.808C446.102 118.832 448.598 119.344 451.414 119.344C454.038 119.344 456.502 119.024 458.806 118.384C461.174 117.68 463.094 116.88 464.566 115.984C465.59 116.624 466.454 117.52 467.158 118.672C467.862 119.824 468.214 121.04 468.214 122.32C468.214 125.2 466.87 127.344 464.182 128.752C462.134 129.84 459.83 130.576 457.27 130.96C454.71 131.344 452.31 131.536 450.07 131.536ZM447.382 93.808C445.846 93.808 444.502 94.064 443.35 94.576C442.262 95.088 441.366 95.76 440.662 96.592C439.958 97.36 439.414 98.256 439.03 99.28C438.71 100.24 438.518 101.232 438.454 102.256L454.87 99.568C454.678 98.288 453.974 97.008 452.758 95.728C451.542 94.448 449.75 93.808 447.382 93.808ZM504.39 94.768C502.79 94.768 501.254 95.024 499.782 95.536C498.374 96.048 497.126 96.816 496.038 97.84C495.014 98.8 494.182 100.016 493.542 101.488C492.902 102.96 492.582 104.688 492.582 106.672C492.582 110.64 493.702 113.616 495.942 115.6C498.246 117.584 501.03 118.576 504.294 118.576C506.214 118.576 507.878 118.352 509.286 117.904C510.694 117.456 511.942 116.976 513.03 116.464C514.31 117.36 515.27 118.352 515.91 119.44C516.55 120.464 516.87 121.712 516.87 123.184C516.87 125.808 515.622 127.856 513.126 129.328C510.63 130.736 507.174 131.44 502.758 131.44C498.726 131.44 495.078 130.864 491.814 129.712C488.55 128.496 485.734 126.832 483.366 124.72C481.062 122.544 479.27 119.952 477.99 116.944C476.71 113.936 476.07 110.608 476.07 106.96C476.07 102.736 476.742 99.056 478.086 95.92C479.494 92.72 481.382 90.096 483.75 88.048C486.118 86 488.838 84.464 491.91 83.44C495.046 82.416 498.342 81.904 501.798 81.904C506.406 81.904 509.958 82.736 512.454 84.4C514.95 86.064 516.198 88.208 516.198 90.832C516.198 92.048 515.91 93.2 515.334 94.288C514.758 95.312 514.086 96.208 513.318 96.976C512.23 96.464 510.918 95.984 509.382 95.536C507.846 95.024 506.182 94.768 504.39 94.768ZM541.375 113.968C541.375 115.632 541.887 116.816 542.911 117.52C543.999 118.224 545.503 118.576 547.423 118.576C548.383 118.576 549.375 118.512 550.399 118.384C551.423 118.192 552.319 117.968 553.087 117.712C553.663 118.416 554.143 119.216 554.527 120.112C554.975 120.944 555.199 121.968 555.199 123.184C555.199 125.616 554.271 127.6 552.415 129.136C550.623 130.672 547.423 131.44 542.815 131.44C537.183 131.44 532.831 130.16 529.759 127.6C526.751 125.04 525.247 120.88 525.247 115.12V74.032C525.951 73.84 526.943 73.648 528.223 73.456C529.567 73.2 530.975 73.072 532.447 73.072C535.263 73.072 537.439 73.584 538.975 74.608C540.575 75.568 541.375 77.648 541.375 80.848V86.992H553.951C554.335 87.696 554.687 88.592 555.007 89.68C555.391 90.704 555.583 91.856 555.583 93.136C555.583 95.376 555.071 97.008 554.047 98.032C553.087 98.992 551.775 99.472 550.111 99.472H541.375V113.968ZM581.252 106.864C578.436 105.904 575.876 104.944 573.572 103.984C571.268 102.96 569.284 101.744 567.62 100.336C565.956 98.928 564.644 97.264 563.684 95.344C562.788 93.36 562.34 90.96 562.34 88.144C562.34 82.704 564.42 78.352 568.58 75.088C572.804 71.824 578.692 70.192 586.244 70.192C588.996 70.192 591.556 70.384 593.924 70.768C596.292 71.152 598.308 71.76 599.972 72.592C601.7 73.36 603.044 74.384 604.004 75.664C604.964 76.88 605.444 78.32 605.444 79.984C605.444 81.648 605.06 83.088 604.292 84.304C603.524 85.456 602.596 86.448 601.508 87.28C600.1 86.384 598.212 85.616 595.844 84.976C593.476 84.272 590.884 83.92 588.068 83.92C585.188 83.92 583.076 84.336 581.732 85.168C580.388 85.936 579.716 86.928 579.716 88.144C579.716 89.104 580.132 89.904 580.964 90.544C581.796 91.12 583.044 91.664 584.708 92.176L589.796 93.808C595.812 95.728 600.42 98.192 603.62 101.2C606.884 104.144 608.516 108.176 608.516 113.296C608.516 118.736 606.372 123.152 602.084 126.544C597.796 129.872 591.492 131.536 583.172 131.536C580.228 131.536 577.476 131.28 574.916 130.768C572.42 130.32 570.212 129.648 568.292 128.752C566.436 127.792 564.964 126.64 563.876 125.296C562.852 123.888 562.34 122.288 562.34 120.496C562.34 118.64 562.884 117.072 563.972 115.792C565.06 114.448 566.244 113.424 567.524 112.72C569.316 114.128 571.492 115.344 574.052 116.368C576.676 117.392 579.524 117.904 582.596 117.904C585.732 117.904 587.94 117.424 589.22 116.464C590.5 115.504 591.14 114.384 591.14 113.104C591.14 111.824 590.628 110.864 589.604 110.224C588.58 109.52 587.14 108.848 585.284 108.208L581.252 106.864ZM632.687 113.968C632.687 115.632 633.199 116.816 634.223 117.52C635.311 118.224 636.815 118.576 638.735 118.576C639.695 118.576 640.687 118.512 641.711 118.384C642.735 118.192 643.631 117.968 644.399 117.712C644.975 118.416 645.455 119.216 645.839 120.112C646.287 120.944 646.511 121.968 646.511 123.184C646.511 125.616 645.583 127.6 643.727 129.136C641.935 130.672 638.735 131.44 634.127 131.44C628.495 131.44 624.143 130.16 621.071 127.6C618.063 125.04 616.559 120.88 616.559 115.12V74.032C617.263 73.84 618.255 73.648 619.535 73.456C620.879 73.2 622.287 73.072 623.759 73.072C626.575 73.072 628.751 73.584 630.287 74.608C631.887 75.568 632.687 77.648 632.687 80.848V86.992H645.263C645.647 87.696 645.999 88.592 646.319 89.68C646.703 90.704 646.895 91.856 646.895 93.136C646.895 95.376 646.383 97.008 645.359 98.032C644.399 98.992 643.087 99.472 641.423 99.472H632.687V113.968ZM702.53 106.672C702.53 110.64 701.922 114.192 700.706 117.328C699.49 120.4 697.762 122.992 695.522 125.104C693.346 127.216 690.722 128.816 687.65 129.904C684.578 130.992 681.154 131.536 677.378 131.536C673.602 131.536 670.178 130.96 667.106 129.808C664.034 128.656 661.378 127.024 659.138 124.912C656.962 122.736 655.266 120.112 654.05 117.04C652.834 113.968 652.226 110.512 652.226 106.672C652.226 102.896 652.834 99.472 654.05 96.4C655.266 93.328 656.962 90.736 659.138 88.624C661.378 86.448 664.034 84.784 667.106 83.632C670.178 82.48 673.602 81.904 677.378 81.904C681.154 81.904 684.578 82.512 687.65 83.728C690.722 84.88 693.346 86.544 695.522 88.72C697.762 90.832 699.49 93.424 700.706 96.496C701.922 99.568 702.53 102.96 702.53 106.672ZM668.93 106.672C668.93 110.576 669.666 113.584 671.138 115.696C672.674 117.744 674.786 118.768 677.474 118.768C680.162 118.768 682.21 117.712 683.618 115.6C685.09 113.488 685.826 110.512 685.826 106.672C685.826 102.832 685.09 99.888 683.618 97.84C682.146 95.728 680.066 94.672 677.378 94.672C674.69 94.672 672.61 95.728 671.138 97.84C669.666 99.888 668.93 102.832 668.93 106.672ZM726.812 129.904C726.172 130.096 725.148 130.288 723.74 130.48C722.396 130.672 720.988 130.768 719.516 130.768C718.108 130.768 716.828 130.672 715.676 130.48C714.588 130.288 713.66 129.904 712.892 129.328C712.124 128.752 711.516 127.984 711.068 127.024C710.684 126 710.492 124.688 710.492 123.088V94.288C710.492 92.816 710.748 91.568 711.26 90.544C711.836 89.456 712.636 88.496 713.66 87.664C714.684 86.832 715.932 86.096 717.404 85.456C718.94 84.752 720.572 84.144 722.3 83.632C724.028 83.12 725.82 82.736 727.676 82.48C729.532 82.16 731.388 82 733.244 82C736.316 82 738.748 82.608 740.54 83.824C742.332 84.976 743.228 86.896 743.228 89.584C743.228 90.48 743.1 91.376 742.844 92.272C742.588 93.104 742.268 93.872 741.884 94.576C740.54 94.576 739.164 94.64 737.756 94.768C736.348 94.896 734.972 95.088 733.628 95.344C732.284 95.6 731.004 95.888 729.788 96.208C728.636 96.464 727.644 96.784 726.812 97.168V129.904ZM772.852 131.536C769.076 131.536 765.556 131.024 762.292 130C759.092 128.912 756.276 127.312 753.844 125.2C751.476 123.088 749.588 120.432 748.18 117.232C746.836 114.032 746.164 110.288 746.164 106C746.164 101.776 746.836 98.16 748.18 95.152C749.588 92.08 751.412 89.584 753.652 87.664C755.892 85.68 758.452 84.24 761.332 83.344C764.212 82.384 767.156 81.904 770.164 81.904C773.556 81.904 776.628 82.416 779.38 83.44C782.196 84.464 784.596 85.872 786.58 87.664C788.628 89.456 790.196 91.6 791.284 94.096C792.436 96.592 793.012 99.312 793.012 102.256C793.012 104.432 792.404 106.096 791.188 107.248C789.972 108.4 788.276 109.136 786.1 109.456L762.388 113.008C763.092 115.12 764.532 116.72 766.708 117.808C768.884 118.832 771.38 119.344 774.196 119.344C776.82 119.344 779.284 119.024 781.588 118.384C783.956 117.68 785.876 116.88 787.348 115.984C788.372 116.624 789.236 117.52 789.94 118.672C790.644 119.824 790.996 121.04 790.996 122.32C790.996 125.2 789.652 127.344 786.964 128.752C784.916 129.84 782.612 130.576 780.052 130.96C777.492 131.344 775.092 131.536 772.852 131.536ZM770.164 93.808C768.628 93.808 767.284 94.064 766.132 94.576C765.044 95.088 764.148 95.76 763.444 96.592C762.74 97.36 762.196 98.256 761.812 99.28C761.492 100.24 761.3 101.232 761.236 102.256L777.652 99.568C777.46 98.288 776.756 97.008 775.54 95.728C774.324 94.448 772.532 93.808 770.164 93.808ZM837.654 118C838.55 118.256 839.702 118.448 841.11 118.576C842.518 118.64 843.862 118.672 845.142 118.672C847.702 118.672 849.814 118.16 851.478 117.136C853.206 116.048 854.07 114.384 854.07 112.144C854.07 110.032 853.366 108.528 851.958 107.632C850.55 106.736 848.406 106.288 845.526 106.288H837.654V118ZM837.654 94.576H844.662C847.414 94.576 849.398 94.064 850.614 93.04C851.894 92.016 852.534 90.512 852.534 88.528C852.534 86.8 851.798 85.424 850.326 84.4C848.918 83.376 846.774 82.864 843.894 82.864C842.934 82.864 841.814 82.896 840.534 82.96C839.318 83.024 838.358 83.12 837.654 83.248V94.576ZM843.894 131.536C842.806 131.536 841.526 131.504 840.054 131.44C838.582 131.376 837.046 131.248 835.446 131.056C833.91 130.864 832.374 130.608 830.838 130.288C829.302 130.032 827.894 129.648 826.614 129.136C823.094 127.792 821.334 125.456 821.334 122.128V77.296C821.334 75.952 821.686 74.928 822.39 74.224C823.158 73.456 824.182 72.848 825.462 72.4C827.638 71.632 830.358 71.088 833.622 70.768C836.886 70.384 840.246 70.192 843.702 70.192C851.894 70.192 858.198 71.568 862.614 74.32C867.03 77.072 869.238 81.328 869.238 87.088C869.238 89.968 868.406 92.464 866.742 94.576C865.078 96.624 862.838 98.128 860.022 99.088C863.222 99.984 865.878 101.616 867.99 103.984C870.166 106.352 871.254 109.328 871.254 112.912C871.254 119.248 868.886 123.952 864.15 127.024C859.478 130.032 852.726 131.536 843.894 131.536ZM927.53 106.672C927.53 110.64 926.922 114.192 925.706 117.328C924.49 120.4 922.762 122.992 920.522 125.104C918.346 127.216 915.722 128.816 912.65 129.904C909.578 130.992 906.154 131.536 902.378 131.536C898.602 131.536 895.178 130.96 892.106 129.808C889.034 128.656 886.378 127.024 884.138 124.912C881.962 122.736 880.266 120.112 879.05 117.04C877.834 113.968 877.226 110.512 877.226 106.672C877.226 102.896 877.834 99.472 879.05 96.4C880.266 93.328 881.962 90.736 884.138 88.624C886.378 86.448 889.034 84.784 892.106 83.632C895.178 82.48 898.602 81.904 902.378 81.904C906.154 81.904 909.578 82.512 912.65 83.728C915.722 84.88 918.346 86.544 920.522 88.72C922.762 90.832 924.49 93.424 925.706 96.496C926.922 99.568 927.53 102.96 927.53 106.672ZM893.93 106.672C893.93 110.576 894.666 113.584 896.138 115.696C897.674 117.744 899.786 118.768 902.474 118.768C905.162 118.768 907.21 117.712 908.618 115.6C910.09 113.488 910.826 110.512 910.826 106.672C910.826 102.832 910.09 99.888 908.618 97.84C907.146 95.728 905.066 94.672 902.378 94.672C899.69 94.672 897.61 95.728 896.138 97.84C894.666 99.888 893.93 102.832 893.93 106.672ZM951.812 113.968C951.812 115.632 952.324 116.816 953.348 117.52C954.436 118.224 955.94 118.576 957.86 118.576C958.82 118.576 959.812 118.512 960.836 118.384C961.86 118.192 962.756 117.968 963.524 117.712C964.1 118.416 964.58 119.216 964.964 120.112C965.412 120.944 965.636 121.968 965.636 123.184C965.636 125.616 964.708 127.6 962.852 129.136C961.06 130.672 957.86 131.44 953.252 131.44C947.62 131.44 943.268 130.16 940.196 127.6C937.188 125.04 935.684 120.88 935.684 115.12V74.032C936.388 73.84 937.38 73.648 938.66 73.456C940.004 73.2 941.412 73.072 942.884 73.072C945.7 73.072 947.876 73.584 949.412 74.608C951.012 75.568 951.812 77.648 951.812 80.848V86.992H964.388C964.772 87.696 965.124 88.592 965.444 89.68C965.828 90.704 966.02 91.856 966.02 93.136C966.02 95.376 965.508 97.008 964.484 98.032C963.524 98.992 962.212 99.472 960.548 99.472H951.812V113.968Z" fill="url(#paint0_linear_604_255)"/>
<g clip-path="url(#clip0_604_255)">
<path d="M188.35 160.405L166.556 138.611C174.889 130.278 180.017 118.74 180.017 105.92C180.017 103.356 180.017 101.112 179.376 98.8687L209.823 94.0614C213.669 119.06 206.298 142.457 188.35 160.405Z" fill="#40596B"/>
<path d="M209.823 94.0614L179.376 98.8687C177.133 84.1258 167.838 71.6263 155.018 64.8958L168.8 37.6534C191.555 49.1916 205.657 68.7419 209.823 94.0614Z" fill="#F2F2F2"/>
<path d="M168.799 37.6534L155.018 64.8958C148.608 61.6908 141.557 59.7679 134.185 59.7679C126.493 59.7679 119.442 61.6908 113.353 64.8958L99.5714 37.6534C121.686 26.1155 146.044 26.1155 168.799 37.6534Z" fill="#84DBFF"/>
<path d="M188.35 160.405C158.223 190.532 109.507 190.532 79.7007 160.405C49.8944 130.278 49.5739 81.8824 79.3802 51.7556C85.4697 45.6661 91.2386 41.4995 98.9307 37.6534L112.712 64.8958C97.9695 72.5879 87.7134 87.9719 87.7134 105.92C87.7134 131.239 108.546 151.751 133.865 151.751C146.685 151.751 158.223 146.623 166.556 138.29L188.35 160.405Z" fill="#FF7058"/>
<path d="M133.865 145.982C155.991 145.982 173.927 128.046 173.927 105.92C173.927 83.7942 155.991 65.8577 133.865 65.8577C111.739 65.8577 93.8025 83.7942 93.8025 105.92C93.8025 128.046 111.739 145.982 133.865 145.982Z" fill="#F8B64C"/>
<path d="M133.865 135.726C150.327 135.726 163.671 122.382 163.671 105.92C163.671 89.458 150.327 76.1132 133.865 76.1132C117.403 76.1132 104.058 89.458 104.058 105.92C104.058 122.382 117.403 135.726 133.865 135.726Z" fill="#FFD15C"/>
<path d="M136.749 101.112C131.621 99.1896 131.301 98.228 131.301 96.9458C131.301 95.3435 132.583 94.3819 134.826 94.3819C138.031 94.3819 139.634 95.3435 140.595 95.9842L142.839 97.2664L145.723 89.254L144.121 88.2924C142.198 87.3308 140.275 86.6901 138.031 86.3695V80.9211H130.019V87.0106C124.891 88.613 121.686 92.459 121.686 97.5872C121.686 104.318 127.135 107.202 132.263 109.125C136.75 111.048 137.07 112.33 137.07 113.612C137.07 115.856 134.827 116.817 132.904 116.817C130.66 116.817 128.096 116.176 126.173 114.894L123.609 113.292L120.725 121.304L122.007 122.266C123.93 123.548 126.494 124.509 129.378 124.83V130.599H137.391V124.509C142.839 122.907 146.044 118.74 146.044 113.292C146.685 106.24 141.236 103.035 136.749 101.112Z" fill="#F8B64C"/>
</g>
<defs>
<linearGradient id="paint0_linear_604_255" x1="256.804" y1="97.6" x2="981.509" y2="99.4586" gradientUnits="userSpaceOnUse">
<stop stop-color="#FF7058"/>
<stop offset="1" stop-color="#FFB1A3"/>
</linearGradient>
<clipPath id="clip0_604_255">
<rect width="154" height="154" fill="white" transform="translate(57 29)"/>
</clipPath>
</defs>
</svg>
