<svg width="997" height="275" viewBox="0 0 997 275" fill="none" xmlns="http://www.w3.org/2000/svg">
<g clip-path="url(#clip0_601_25)">
<path fill-rule="evenodd" clip-rule="evenodd" d="M151.5 43.5C162.167 43.5 172.833 43.5 183.5 43.5C183.5 49.1667 183.5 54.8333 183.5 60.5C172.833 60.5 162.167 60.5 151.5 60.5C151.5 54.8333 151.5 49.1667 151.5 43.5Z" fill="#5C0183"/>
<path fill-rule="evenodd" clip-rule="evenodd" d="M151.5 43.5C151.5 49.1667 151.5 54.8333 151.5 60.5C162.167 60.5 172.833 60.5 183.5 60.5C172.679 61.4946 161.679 61.8279 150.5 61.5C150.177 55.31 150.51 49.31 151.5 43.5Z" fill="#8947A5"/>
<path fill-rule="evenodd" clip-rule="evenodd" d="M203.5 63.5C205.074 63.9371 206.241 64.9371 207 66.5C228.489 106.988 225.822 145.654 199 182.5C170.13 212.764 135.296 222.598 94.5 212C93.8617 210.293 93.8617 208.46 94.5 206.5C128.077 215.134 158.411 208.967 185.5 188C216.108 156.624 223.275 120.458 207 79.5C204.579 75.6597 202.412 71.6597 200.5 67.5C201.524 66.1482 202.524 64.8149 203.5 63.5Z" fill="#65158A"/>
<path fill-rule="evenodd" clip-rule="evenodd" d="M119.5 163.5C108.097 163.751 96.7639 163.084 85.5 161.5C79.6148 160.612 73.9481 158.945 68.5 156.5C66.3771 158.122 66.0437 160.122 67.5 162.5C89.1667 170.344 111.167 171.511 133.5 166C150.974 159.192 163.141 147.026 170 129.5C176.926 109.429 179.759 88.7627 178.5 67.5C181.044 67.1043 183.211 67.771 185 69.5C197.372 95.3135 198.706 121.647 189 148.5C169.545 184.64 139.712 198.14 99.5 189C83.1031 184.556 68.9364 176.39 57 164.5C54.792 161.446 53.792 158.113 54 154.5C54.8333 153.667 55.6667 152.833 56.5 152C84.2715 153.291 109.605 146.291 132.5 131C150.239 113.629 158.239 92.4625 156.5 67.5C161.833 67.5 167.167 67.5 172.5 67.5C173.507 85.461 171.673 103.128 167 120.5C160.142 144.863 144.308 159.196 119.5 163.5Z" fill="#5F0785"/>
<path fill-rule="evenodd" clip-rule="evenodd" d="M148.5 85.5C146.141 111.407 132.475 128.907 107.5 138C80.629 144.548 60.629 135.715 47.5 111.5C48.5 111.167 49.5 110.833 50.5 110.5C83.0396 120.955 112.706 115.789 139.5 95C142.704 91.9641 145.704 88.7974 148.5 85.5Z" fill="#5F0885"/>
<path fill-rule="evenodd" clip-rule="evenodd" d="M394.5 130.5C393.506 139.986 393.173 149.652 393.5 159.5C390.167 159.5 386.833 159.5 383.5 159.5C383.5 144.5 383.5 129.5 383.5 114.5C386.734 103.606 394.068 97.9389 405.5 97.5C405.5 101.5 405.5 105.5 405.5 109.5C398.644 109.357 394.977 112.691 394.5 119.5C398.167 119.5 401.833 119.5 405.5 119.5C405.5 123.167 405.5 126.833 405.5 130.5C401.833 130.5 398.167 130.5 394.5 130.5Z" fill="#681090"/>
<path fill-rule="evenodd" clip-rule="evenodd" d="M296.5 103.5C306.917 101.753 315.917 104.42 323.5 111.5C321.518 114.81 319.185 117.81 316.5 120.5C312.57 117.556 308.237 115.556 303.5 114.5C297.166 115.671 296.166 118.504 300.5 123C306.667 125.278 312.667 127.945 318.5 131C326.558 139.907 326.225 148.573 317.5 157C304.017 163.541 292.351 161.208 282.5 150C284.645 146.688 287.312 143.854 290.5 141.5C293.503 145.007 297.169 147.507 301.5 149C305.107 149.797 308.274 148.964 311 146.5C311.743 144.559 311.576 142.726 310.5 141C303.961 138.379 297.627 135.379 291.5 132C282.258 120.593 283.924 111.093 296.5 103.5Z" fill="#600A86"/>
<path fill-rule="evenodd" clip-rule="evenodd" d="M444.5 103.5C452.507 103.334 460.507 103.5 468.5 104C480.593 105.769 485.093 112.603 482 124.5C481.208 126.587 480.041 128.421 478.5 130C486.44 137.11 487.607 145.277 482 154.5C478.845 157.667 475.012 159.501 470.5 160C461.84 160.5 453.173 160.666 444.5 160.5C444.5 141.5 444.5 122.5 444.5 103.5Z" fill="#731D9D"/>
<path fill-rule="evenodd" clip-rule="evenodd" d="M422.5 106.5C423.485 110.634 423.818 114.968 423.5 119.5C427.5 119.5 431.5 119.5 435.5 119.5C435.5 123.167 435.5 126.833 435.5 130.5C431.5 130.5 427.5 130.5 423.5 130.5C421.744 138.371 424.077 144.538 430.5 149C432.134 149.494 433.801 149.66 435.5 149.5C435.665 153.182 435.499 156.848 435 160.5C423.893 160.769 416.559 155.436 413 144.5C412.333 133.167 412.333 121.833 413 110.5C416.291 109.243 419.458 107.91 422.5 106.5Z" fill="#6F1898"/>
<path fill-rule="evenodd" clip-rule="evenodd" d="M456.5 115.5C460.514 115.334 464.514 115.501 468.5 116C471.418 119.472 471.085 122.472 467.5 125C463.848 125.499 460.182 125.665 456.5 125.5C456.5 122.167 456.5 118.833 456.5 115.5Z" fill="#F9F7FA"/>
<path fill-rule="evenodd" clip-rule="evenodd" d="M345.5 119.5C365.012 118.177 373.845 127.177 372 146.5C364.683 160.605 353.849 164.105 339.5 157C330.732 148.314 329.232 138.48 335 127.5C337.94 123.963 341.44 121.297 345.5 119.5Z" fill="#640E8B"/>
<path fill-rule="evenodd" clip-rule="evenodd" d="M506.5 119.5C515.5 120.833 524.5 120.833 533.5 119.5C533.5 133.167 533.5 146.833 533.5 160.5C524.535 159.758 515.535 159.591 506.5 160C495.006 154.846 490.506 146.013 493 133.5C495.687 126.981 500.187 122.314 506.5 119.5Z" fill="#7821A3"/>
<path fill-rule="evenodd" clip-rule="evenodd" d="M544.5 119.5C548.759 119.003 552.759 119.669 556.5 121.5C567.428 118.547 575.262 122.214 580 132.5C580.5 141.827 580.666 151.161 580.5 160.5C576.833 160.5 573.167 160.5 569.5 160.5C569.666 152.493 569.5 144.493 569 136.5C564.667 129.833 560.333 129.833 556 136.5C555.5 144.493 555.334 152.493 555.5 160.5C551.833 160.5 548.167 160.5 544.5 160.5C544.5 146.833 544.5 133.167 544.5 119.5Z" fill="#7C25A9"/>
<path fill-rule="evenodd" clip-rule="evenodd" d="M603.5 119.5C612.5 120.833 621.5 120.833 630.5 119.5C630.5 133.167 630.5 146.833 630.5 160.5C621.503 159.338 612.503 159.171 603.5 160C591.205 154.831 586.705 145.664 590 132.5C593.076 126.589 597.576 122.255 603.5 119.5Z" fill="#842EB1"/>
<path fill-rule="evenodd" clip-rule="evenodd" d="M641.5 119.5C645.673 118.956 649.506 119.623 653 121.5C664.325 118.829 672.325 122.829 677 133.5C677.5 142.494 677.666 151.494 677.5 160.5C673.5 160.5 669.5 160.5 665.5 160.5C665.666 152.16 665.5 143.827 665 135.5C659.791 129.775 655.624 130.442 652.5 137.5C651.508 144.648 651.175 151.981 651.5 159.5C648.167 159.5 644.833 159.5 641.5 159.5C641.5 146.167 641.5 132.833 641.5 119.5Z" fill="#8831B6"/>
<path fill-rule="evenodd" clip-rule="evenodd" d="M699.5 119.5C708.5 120.833 717.5 120.833 726.5 119.5C726.5 133.167 726.5 146.833 726.5 160.5C717.535 159.758 708.535 159.591 699.5 160C688.84 154.851 684.34 146.351 686 134.5C688.263 127.407 692.763 122.407 699.5 119.5Z" fill="#8D37BC"/>
<path fill-rule="evenodd" clip-rule="evenodd" d="M745.5 118.5C751.833 118.5 758.167 118.5 764.5 118.5C764.5 122.5 764.5 126.5 764.5 130.5C759.167 130.5 753.833 130.5 748.5 130.5C748.5 131.5 748.5 132.5 748.5 133.5C761.712 133.209 767.212 139.542 765 152.5C763.084 156.085 760.251 158.585 756.5 160C749.508 160.5 742.508 160.666 735.5 160.5C735.5 156.5 735.5 152.5 735.5 148.5C741.5 148.5 747.5 148.5 753.5 148.5C753.5 147.5 753.5 146.5 753.5 145.5C741.242 146.409 735.409 140.742 736 128.5C738.022 123.98 741.189 120.647 745.5 118.5Z" fill="#923DC2"/>
<path fill-rule="evenodd" clip-rule="evenodd" d="M802.5 118.5C803.833 118.5 805.167 118.5 806.5 118.5C806.5 132.5 806.5 146.5 806.5 160.5C802.5 160.5 798.5 160.5 794.5 160.5C794.168 147.483 794.501 134.483 795.5 121.5C798.016 120.67 800.35 119.67 802.5 118.5Z" fill="#9A47C9"/>
<path fill-rule="evenodd" clip-rule="evenodd" d="M818.5 119.5C822.673 118.956 826.506 119.623 830 121.5C841.325 118.829 849.325 122.829 854 133.5C854.5 142.494 854.666 151.494 854.5 160.5C850.5 160.5 846.5 160.5 842.5 160.5C842.666 152.16 842.5 143.827 842 135.5C836.653 129.717 832.486 130.384 829.5 137.5C828.508 144.648 828.175 151.981 828.5 159.5C825.167 159.5 821.833 159.5 818.5 159.5C818.5 146.167 818.5 132.833 818.5 119.5Z" fill="#9C47CE"/>
<path fill-rule="evenodd" clip-rule="evenodd" d="M383.5 114.5C383.5 129.5 383.5 144.5 383.5 159.5C386.833 159.5 390.167 159.5 393.5 159.5C393.173 149.652 393.506 139.986 394.5 130.5C394.5 140.5 394.5 150.5 394.5 160.5C390.5 160.5 386.5 160.5 382.5 160.5C382.17 144.991 382.504 129.658 383.5 114.5Z" fill="#8138A2"/>
<path fill-rule="evenodd" clip-rule="evenodd" d="M876.5 119.5C886.145 117.881 894.145 120.714 900.5 128C897.64 130.36 894.64 132.527 891.5 134.5C885.583 128.855 880.083 129.188 875 135.5C873.181 145.006 877.015 149.506 886.5 149C888.305 148.028 889.972 146.861 891.5 145.5C894.672 147.252 897.672 149.252 900.5 151.5C894.466 159.676 886.466 162.509 876.5 160C865.846 154.862 861.346 146.362 863 134.5C865.29 127.383 869.79 122.383 876.5 119.5Z" fill="#A24DD4"/>
<path fill-rule="evenodd" clip-rule="evenodd" d="M349.5 130.5C359.128 130.793 362.628 135.46 360 144.5C353.55 151.549 347.883 150.882 343 142.5C342.339 136.989 344.506 132.989 349.5 130.5Z" fill="#F6F3F7"/>
<path fill-rule="evenodd" clip-rule="evenodd" d="M510.5 130.5C520.907 130.733 524.407 135.733 521 145.5C515.286 151.09 509.953 150.756 505 144.5C503.025 138.177 504.858 133.51 510.5 130.5Z" fill="#F8F5F9"/>
<path fill-rule="evenodd" clip-rule="evenodd" d="M607.5 130.5C616.508 131.01 620.008 135.677 618 144.5C611.306 151.66 605.639 150.993 601 142.5C600.287 136.926 602.453 132.926 607.5 130.5Z" fill="#F8F5F9"/>
<path fill-rule="evenodd" clip-rule="evenodd" d="M703.5 130.5C713.929 130.751 717.429 135.751 714 145.5C707.783 151.32 702.45 150.654 698 143.5C697.333 140.833 697.333 138.167 698 135.5C699.73 133.598 701.563 131.931 703.5 130.5Z" fill="#F8F5FA"/>
<path fill-rule="evenodd" clip-rule="evenodd" d="M456.5 136.5C461.248 136.275 465.915 136.775 470.5 138C474.663 141.829 474.329 145.163 469.5 148C465.179 148.499 460.846 148.666 456.5 148.5C456.5 144.5 456.5 140.5 456.5 136.5Z" fill="#F7F5F9"/>
<path fill-rule="evenodd" clip-rule="evenodd" d="M818.5 119.5C818.5 132.833 818.5 146.167 818.5 159.5C821.833 159.5 825.167 159.5 828.5 159.5C828.175 151.981 828.508 144.648 829.5 137.5C829.5 145.167 829.5 152.833 829.5 160.5C825.5 160.5 821.5 160.5 817.5 160.5C817.171 146.656 817.504 132.99 818.5 119.5Z" fill="#AC65D6"/>
<path fill-rule="evenodd" clip-rule="evenodd" d="M641.5 119.5C641.5 132.833 641.5 146.167 641.5 159.5C644.833 159.5 648.167 159.5 651.5 159.5C651.175 151.981 651.508 144.648 652.5 137.5C652.5 145.167 652.5 152.833 652.5 160.5C648.5 160.5 644.5 160.5 640.5 160.5C640.171 146.656 640.504 132.99 641.5 119.5Z" fill="#994EC0"/>
<path fill-rule="evenodd" clip-rule="evenodd" d="M911.5 149.5C918.676 148.985 920.342 151.818 916.5 158C909.416 158.475 907.749 155.642 911.5 149.5Z" fill="#AB5CDC"/>
<path fill-rule="evenodd" clip-rule="evenodd" d="M85.5 161.5C96.7639 163.084 108.097 163.751 119.5 163.5C111.677 164.656 103.677 164.823 95.5 164C91.9618 163.465 88.6284 162.632 85.5 161.5Z" fill="#AA7ABD"/>
<path fill-rule="evenodd" clip-rule="evenodd" d="M62.5 189.5C68.8344 193.667 75.1677 197.834 81.5 202C80.8995 206.315 78.8995 207.315 75.5 205C69.5994 201.89 64.2661 198.056 59.5 193.5C60.5244 192.148 61.5244 190.815 62.5 189.5Z" fill="#68198B"/>
</g>
<defs>
<clipPath id="clip0_601_25">
<rect width="997" height="275" fill="white"/>
</clipPath>
</defs>
</svg>
